<?xml version="1.0" encoding="UTF-8"?>
<!-- Created with Inkscape (http://www.inkscape.org/) -->
<svg width="49.635" height="58.948" version="1.1" viewBox="0 0 49.635 58.948" xmlns="http://www.w3.org/2000/svg">
 <g transform="matrix(1.3333 0 0 -1.3333 -3.9931 62.943)">
  <path d="m21.602 3.3946-18.208 21.699c6.0492 7.2394 12.138 14.48 18.208 21.715 6.0758-7.2103 12.152-14.467 18.221-21.699-6.33-7.5772-12.785-15.254-18.221-21.715z" fill="#fff"/>
  <g transform="translate(21.608,3.387)" fill="none" stroke="#000" stroke-miterlimit="10" stroke-width=".3985">
   <path d="m-3.6437 38.646c2.1071-1.7681 5.181-1.7681 7.2881 0"/>
   <path d="m-0.47015 39.417-0.17994-4.1286"/>
   <path d="m0.47015 39.417 0.17994-4.1286"/>
   <path d="m3.6437 4.7834c-2.1071 1.7681-5.181 1.7681-7.2881 0"/>
   <path d="m0.47015 4.0126 0.17994 4.1286"/>
   <path d="m-0.47015 4.0126-0.17994 4.1286"/>
   <path d="m14.208 26.057c-1.5513-1.3017-2.2907-3.3328-1.939-5.3272 0.23138-1.3123 0.91827-2.5018 1.939-3.3583"/>
   <path d="m14.248 21.715h-4.1329"/>
   <path d="m-14.208 17.372c1.5513 1.3018 2.2907 3.3328 1.939 5.3272-0.23138 1.3123-0.91827 2.5018-1.939 3.3584"/>
   <path d="m-14.248 21.715h4.1329"/>
  </g>
  <path d="m21.602 3.3946-18.208 21.699c6.0492 7.2394 12.138 14.48 18.208 21.715 6.0758-7.2103 12.152-14.467 18.221-21.699-6.33-7.5772-12.785-15.254-18.221-21.715z" fill="none" stroke="#000" stroke-linejoin="round" stroke-miterlimit="10" stroke-width=".79701"/>
  <g transform="translate(21.608,3.387)"></g>
 </g>
</svg>
