<?xml version="1.0" encoding="UTF-8" standalone="no"?>
<!-- Created with Inkscape (http://www.inkscape.org/) -->

<svg
   version="1.1"
   id="svg2"
   width="49.635155"
   height="58.948181"
   viewBox="0 0 49.635155 58.948181"
   sodipodi:docname="logo.svg"
   inkscape:version="1.3.2 (091e20ef0f, 2023-11-25)"
   inkscape:export-filename="logo.png"
   inkscape:export-xdpi="976.72711"
   inkscape:export-ydpi="976.72711"
   xmlns:inkscape="http://www.inkscape.org/namespaces/inkscape"
   xmlns:sodipodi="http://sodipodi.sourceforge.net/DTD/sodipodi-0.dtd"
   xmlns="http://www.w3.org/2000/svg"
   xmlns:svg="http://www.w3.org/2000/svg">
  <defs
     id="defs6">
    <clipPath
       clipPathUnits="userSpaceOnUse"
       id="clipPath40">
      <path
         d="M 0,0 H 43.305 V 50.292 H 0 Z"
         id="path38" />
    </clipPath>
    <clipPath
       clipPathUnits="userSpaceOnUse"
       id="clipPath44">
      <path
         d="M 0,0 H 43.305 V 50.292 H 0 Z"
         id="path42" />
    </clipPath>
    <clipPath
       clipPathUnits="userSpaceOnUse"
       id="clipPath48">
      <path
         d="m -0.0064,0.00761 -18.20829,21.69947 c -0.0035,0.0042 -0.0035,0.01103 0,0.01522 L -0.0064,43.42178 c 0.00353,0.0042 0.00927,0.0042 0.0128,0 L 18.21469,21.7223 c 0.0035,-0.0042 0.0035,-0.01103 0,-0.01522 L 0.0064,0.00761 c -0.00353,-0.00419 -0.00927,-0.00419 -0.0128,0 z"
         id="path46" />
    </clipPath>
    <mask
       maskUnits="userSpaceOnUse"
       x="0"
       y="0"
       width="1"
       height="1"
       id="mask50">
      <g
         id="g234">
        <g
           clip-path="url(#clipPath40)"
           id="g232">
          <g
             id="g230">
            <g
               id="g228">
              <g
                 clip-path="url(#clipPath44)"
                 id="g226">
                <g
                   id="g224">
                  <g
                     transform="translate(21.652,3.431)"
                     id="g222">
                    <g
                       id="g218">
                      <g
                         id="g52" />
                      <path
                         d="m -0.0064,0.00761 -18.20829,21.69947 c -0.0035,0.0042 -0.0035,0.01103 0,0.01522 L -0.0064,43.42178 c 0.00353,0.0042 0.00927,0.0042 0.0128,0 L 18.21469,21.7223 c 0.0035,-0.0042 0.0035,-0.01103 0,-0.01522 L 0.0064,0.00761 c -0.00353,-0.00419 -0.00927,-0.00419 -0.0128,0 z"
                         style="fill:none;stroke:#010101;stroke-width:3.43153;stroke-linecap:butt;stroke-linejoin:round;stroke-miterlimit:10;stroke-dasharray:none;stroke-opacity:1"
                         id="path54" />
                      <path
                         d="m -0.0064,0.00761 -18.20829,21.69947 c -0.0035,0.0042 -0.0035,0.01103 0,0.01522 L -0.0064,43.42178 c 0.00353,0.0042 0.00927,0.0042 0.0128,0 L 18.21469,21.7223 c 0.0035,-0.0042 0.0035,-0.01103 0,-0.01522 L 0.0064,0.00761 c -0.00353,-0.00419 -0.00927,-0.00419 -0.0128,0 z"
                         style="fill:none;stroke:#020202;stroke-width:3.34467;stroke-linecap:butt;stroke-linejoin:round;stroke-miterlimit:10;stroke-dasharray:none;stroke-opacity:1"
                         id="path56" />
                      <path
                         d="m -0.0064,0.00761 -18.20829,21.69947 c -0.0035,0.0042 -0.0035,0.01103 0,0.01522 L -0.0064,43.42178 c 0.00353,0.0042 0.00927,0.0042 0.0128,0 L 18.21469,21.7223 c 0.0035,-0.0042 0.0035,-0.01103 0,-0.01522 L 0.0064,0.00761 c -0.00353,-0.00419 -0.00927,-0.00419 -0.0128,0 z"
                         style="fill:none;stroke:#030303;stroke-width:3.25781;stroke-linecap:butt;stroke-linejoin:round;stroke-miterlimit:10;stroke-dasharray:none;stroke-opacity:1"
                         id="path58" />
                      <path
                         d="m -0.0064,0.00761 -18.20829,21.69947 c -0.0035,0.0042 -0.0035,0.01103 0,0.01522 L -0.0064,43.42178 c 0.00353,0.0042 0.00927,0.0042 0.0128,0 L 18.21469,21.7223 c 0.0035,-0.0042 0.0035,-0.01103 0,-0.01522 L 0.0064,0.00761 c -0.00353,-0.00419 -0.00927,-0.00419 -0.0128,0 z"
                         style="fill:none;stroke:#040404;stroke-width:3.17094;stroke-linecap:butt;stroke-linejoin:round;stroke-miterlimit:10;stroke-dasharray:none;stroke-opacity:1"
                         id="path60" />
                      <path
                         d="m -0.0064,0.00761 -18.20829,21.69947 c -0.0035,0.0042 -0.0035,0.01103 0,0.01522 L -0.0064,43.42178 c 0.00353,0.0042 0.00927,0.0042 0.0128,0 L 18.21469,21.7223 c 0.0035,-0.0042 0.0035,-0.01103 0,-0.01522 L 0.0064,0.00761 c -0.00353,-0.00419 -0.00927,-0.00419 -0.0128,0 z"
                         style="fill:none;stroke:#060606;stroke-width:3.08408;stroke-linecap:butt;stroke-linejoin:round;stroke-miterlimit:10;stroke-dasharray:none;stroke-opacity:1"
                         id="path62" />
                      <path
                         d="m -0.0064,0.00761 -18.20829,21.69947 c -0.0035,0.0042 -0.0035,0.01103 0,0.01522 L -0.0064,43.42178 c 0.00353,0.0042 0.00927,0.0042 0.0128,0 L 18.21469,21.7223 c 0.0035,-0.0042 0.0035,-0.01103 0,-0.01522 L 0.0064,0.00761 c -0.00353,-0.00419 -0.00927,-0.00419 -0.0128,0 z"
                         style="fill:none;stroke:#070707;stroke-width:2.99721;stroke-linecap:butt;stroke-linejoin:round;stroke-miterlimit:10;stroke-dasharray:none;stroke-opacity:1"
                         id="path64" />
                      <path
                         d="m -0.0064,0.00761 -18.20829,21.69947 c -0.0035,0.0042 -0.0035,0.01103 0,0.01522 L -0.0064,43.42178 c 0.00353,0.0042 0.00927,0.0042 0.0128,0 L 18.21469,21.7223 c 0.0035,-0.0042 0.0035,-0.01103 0,-0.01522 L 0.0064,0.00761 c -0.00353,-0.00419 -0.00927,-0.00419 -0.0128,0 z"
                         style="fill:none;stroke:#080808;stroke-width:2.91035;stroke-linecap:butt;stroke-linejoin:round;stroke-miterlimit:10;stroke-dasharray:none;stroke-opacity:1"
                         id="path66" />
                      <path
                         d="m -0.0064,0.00761 -18.20829,21.69947 c -0.0035,0.0042 -0.0035,0.01103 0,0.01522 L -0.0064,43.42178 c 0.00353,0.0042 0.00927,0.0042 0.0128,0 L 18.21469,21.7223 c 0.0035,-0.0042 0.0035,-0.01103 0,-0.01522 L 0.0064,0.00761 c -0.00353,-0.00419 -0.00927,-0.00419 -0.0128,0 z"
                         style="fill:none;stroke:#0a0a0a;stroke-width:2.82349;stroke-linecap:butt;stroke-linejoin:round;stroke-miterlimit:10;stroke-dasharray:none;stroke-opacity:1"
                         id="path68" />
                      <path
                         d="m -0.0064,0.00761 -18.20829,21.69947 c -0.0035,0.0042 -0.0035,0.01103 0,0.01522 L -0.0064,43.42178 c 0.00353,0.0042 0.00927,0.0042 0.0128,0 L 18.21469,21.7223 c 0.0035,-0.0042 0.0035,-0.01103 0,-0.01522 L 0.0064,0.00761 c -0.00353,-0.00419 -0.00927,-0.00419 -0.0128,0 z"
                         style="fill:none;stroke:#0b0b0b;stroke-width:2.73662;stroke-linecap:butt;stroke-linejoin:round;stroke-miterlimit:10;stroke-dasharray:none;stroke-opacity:1"
                         id="path70" />
                      <path
                         d="m -0.0064,0.00761 -18.20829,21.69947 c -0.0035,0.0042 -0.0035,0.01103 0,0.01522 L -0.0064,43.42178 c 0.00353,0.0042 0.00927,0.0042 0.0128,0 L 18.21469,21.7223 c 0.0035,-0.0042 0.0035,-0.01103 0,-0.01522 L 0.0064,0.00761 c -0.00353,-0.00419 -0.00927,-0.00419 -0.0128,0 z"
                         style="fill:none;stroke:#0c0c0c;stroke-width:2.64977;stroke-linecap:butt;stroke-linejoin:round;stroke-miterlimit:10;stroke-dasharray:none;stroke-opacity:1"
                         id="path72" />
                      <path
                         d="m -0.0064,0.00761 -18.20829,21.69947 c -0.0035,0.0042 -0.0035,0.01103 0,0.01522 L -0.0064,43.42178 c 0.00353,0.0042 0.00927,0.0042 0.0128,0 L 18.21469,21.7223 c 0.0035,-0.0042 0.0035,-0.01103 0,-0.01522 L 0.0064,0.00761 c -0.00353,-0.00419 -0.00927,-0.00419 -0.0128,0 z"
                         style="fill:none;stroke:#0d0d0d;stroke-width:2.5629;stroke-linecap:butt;stroke-linejoin:round;stroke-miterlimit:10;stroke-dasharray:none;stroke-opacity:1"
                         id="path74" />
                      <path
                         d="m -0.0064,0.00761 -18.20829,21.69947 c -0.0035,0.0042 -0.0035,0.01103 0,0.01522 L -0.0064,43.42178 c 0.00353,0.0042 0.00927,0.0042 0.0128,0 L 18.21469,21.7223 c 0.0035,-0.0042 0.0035,-0.01103 0,-0.01522 L 0.0064,0.00761 c -0.00353,-0.00419 -0.00927,-0.00419 -0.0128,0 z"
                         style="fill:none;stroke:#0f0f0f;stroke-width:2.47603;stroke-linecap:butt;stroke-linejoin:round;stroke-miterlimit:10;stroke-dasharray:none;stroke-opacity:1"
                         id="path76" />
                      <path
                         d="m -0.0064,0.00761 -18.20829,21.69947 c -0.0035,0.0042 -0.0035,0.01103 0,0.01522 L -0.0064,43.42178 c 0.00353,0.0042 0.00927,0.0042 0.0128,0 L 18.21469,21.7223 c 0.0035,-0.0042 0.0035,-0.01103 0,-0.01522 L 0.0064,0.00761 c -0.00353,-0.00419 -0.00927,-0.00419 -0.0128,0 z"
                         style="fill:none;stroke:#101010;stroke-width:2.38916;stroke-linecap:butt;stroke-linejoin:round;stroke-miterlimit:10;stroke-dasharray:none;stroke-opacity:1"
                         id="path78" />
                      <path
                         d="m -0.0064,0.00761 -18.20829,21.69947 c -0.0035,0.0042 -0.0035,0.01103 0,0.01522 L -0.0064,43.42178 c 0.00353,0.0042 0.00927,0.0042 0.0128,0 L 18.21469,21.7223 c 0.0035,-0.0042 0.0035,-0.01103 0,-0.01522 L 0.0064,0.00761 c -0.00353,-0.00419 -0.00927,-0.00419 -0.0128,0 z"
                         style="fill:none;stroke:#111111;stroke-width:2.3023;stroke-linecap:butt;stroke-linejoin:round;stroke-miterlimit:10;stroke-dasharray:none;stroke-opacity:1"
                         id="path80" />
                      <path
                         d="m -0.0064,0.00761 -18.20829,21.69947 c -0.0035,0.0042 -0.0035,0.01103 0,0.01522 L -0.0064,43.42178 c 0.00353,0.0042 0.00927,0.0042 0.0128,0 L 18.21469,21.7223 c 0.0035,-0.0042 0.0035,-0.01103 0,-0.01522 L 0.0064,0.00761 c -0.00353,-0.00419 -0.00927,-0.00419 -0.0128,0 z"
                         style="fill:none;stroke:#121212;stroke-width:2.21544;stroke-linecap:butt;stroke-linejoin:round;stroke-miterlimit:10;stroke-dasharray:none;stroke-opacity:1"
                         id="path82" />
                      <path
                         d="m -0.0064,0.00761 -18.20829,21.69947 c -0.0035,0.0042 -0.0035,0.01103 0,0.01522 L -0.0064,43.42178 c 0.00353,0.0042 0.00927,0.0042 0.0128,0 L 18.21469,21.7223 c 0.0035,-0.0042 0.0035,-0.01103 0,-0.01522 L 0.0064,0.00761 c -0.00353,-0.00419 -0.00927,-0.00419 -0.0128,0 z"
                         style="fill:none;stroke:#141414;stroke-width:2.12857;stroke-linecap:butt;stroke-linejoin:round;stroke-miterlimit:10;stroke-dasharray:none;stroke-opacity:1"
                         id="path84" />
                      <path
                         d="m -0.0064,0.00761 -18.20829,21.69947 c -0.0035,0.0042 -0.0035,0.01103 0,0.01522 L -0.0064,43.42178 c 0.00353,0.0042 0.00927,0.0042 0.0128,0 L 18.21469,21.7223 c 0.0035,-0.0042 0.0035,-0.01103 0,-0.01522 L 0.0064,0.00761 c -0.00353,-0.00419 -0.00927,-0.00419 -0.0128,0 z"
                         style="fill:none;stroke:#151515;stroke-width:2.0417;stroke-linecap:butt;stroke-linejoin:round;stroke-miterlimit:10;stroke-dasharray:none;stroke-opacity:1"
                         id="path86" />
                      <path
                         d="m -0.0064,0.00761 -18.20829,21.69947 c -0.0035,0.0042 -0.0035,0.01103 0,0.01522 L -0.0064,43.42178 c 0.00353,0.0042 0.00927,0.0042 0.0128,0 L 18.21469,21.7223 c 0.0035,-0.0042 0.0035,-0.01103 0,-0.01522 L 0.0064,0.00761 c -0.00353,-0.00419 -0.00927,-0.00419 -0.0128,0 z"
                         style="fill:none;stroke:#161616;stroke-width:1.95485;stroke-linecap:butt;stroke-linejoin:round;stroke-miterlimit:10;stroke-dasharray:none;stroke-opacity:1"
                         id="path88" />
                      <path
                         d="m -0.0064,0.00761 -18.20829,21.69947 c -0.0035,0.0042 -0.0035,0.01103 0,0.01522 L -0.0064,43.42178 c 0.00353,0.0042 0.00927,0.0042 0.0128,0 L 18.21469,21.7223 c 0.0035,-0.0042 0.0035,-0.01103 0,-0.01522 L 0.0064,0.00761 c -0.00353,-0.00419 -0.00927,-0.00419 -0.0128,0 z"
                         style="fill:none;stroke:#181818;stroke-width:1.86798;stroke-linecap:butt;stroke-linejoin:round;stroke-miterlimit:10;stroke-dasharray:none;stroke-opacity:1"
                         id="path90" />
                      <path
                         d="m -0.0064,0.00761 -18.20829,21.69947 c -0.0035,0.0042 -0.0035,0.01103 0,0.01522 L -0.0064,43.42178 c 0.00353,0.0042 0.00927,0.0042 0.0128,0 L 18.21469,21.7223 c 0.0035,-0.0042 0.0035,-0.01103 0,-0.01522 L 0.0064,0.00761 c -0.00353,-0.00419 -0.00927,-0.00419 -0.0128,0 z"
                         style="fill:none;stroke:#191919;stroke-width:1.78111;stroke-linecap:butt;stroke-linejoin:round;stroke-miterlimit:10;stroke-dasharray:none;stroke-opacity:1"
                         id="path92" />
                      <path
                         d="m -0.0064,0.00761 -18.20829,21.69947 c -0.0035,0.0042 -0.0035,0.01103 0,0.01522 L -0.0064,43.42178 c 0.00353,0.0042 0.00927,0.0042 0.0128,0 L 18.21469,21.7223 c 0.0035,-0.0042 0.0035,-0.01103 0,-0.01522 L 0.0064,0.00761 c -0.00353,-0.00419 -0.00927,-0.00419 -0.0128,0 z"
                         style="fill:none;stroke:#1a1a1a;stroke-width:1.69426;stroke-linecap:butt;stroke-linejoin:round;stroke-miterlimit:10;stroke-dasharray:none;stroke-opacity:1"
                         id="path94" />
                      <path
                         d="m -0.0064,0.00761 -18.20829,21.69947 c -0.0035,0.0042 -0.0035,0.01103 0,0.01522 L -0.0064,43.42178 c 0.00353,0.0042 0.00927,0.0042 0.0128,0 L 18.21469,21.7223 c 0.0035,-0.0042 0.0035,-0.01103 0,-0.01522 L 0.0064,0.00761 c -0.00353,-0.00419 -0.00927,-0.00419 -0.0128,0 z"
                         style="fill:none;stroke:#1b1b1b;stroke-width:1.60739;stroke-linecap:butt;stroke-linejoin:round;stroke-miterlimit:10;stroke-dasharray:none;stroke-opacity:1"
                         id="path96" />
                      <path
                         d="m -0.0064,0.00761 -18.20829,21.69947 c -0.0035,0.0042 -0.0035,0.01103 0,0.01522 L -0.0064,43.42178 c 0.00353,0.0042 0.00927,0.0042 0.0128,0 L 18.21469,21.7223 c 0.0035,-0.0042 0.0035,-0.01103 0,-0.01522 L 0.0064,0.00761 c -0.00353,-0.00419 -0.00927,-0.00419 -0.0128,0 z"
                         style="fill:none;stroke:#1d1d1d;stroke-width:1.52052;stroke-linecap:butt;stroke-linejoin:round;stroke-miterlimit:10;stroke-dasharray:none;stroke-opacity:1"
                         id="path98" />
                      <path
                         d="m -0.0064,0.00761 -18.20829,21.69947 c -0.0035,0.0042 -0.0035,0.01103 0,0.01522 L -0.0064,43.42178 c 0.00353,0.0042 0.00927,0.0042 0.0128,0 L 18.21469,21.7223 c 0.0035,-0.0042 0.0035,-0.01103 0,-0.01522 L 0.0064,0.00761 c -0.00353,-0.00419 -0.00927,-0.00419 -0.0128,0 z"
                         style="fill:none;stroke:#1e1e1e;stroke-width:1.43365;stroke-linecap:butt;stroke-linejoin:round;stroke-miterlimit:10;stroke-dasharray:none;stroke-opacity:1"
                         id="path100" />
                      <path
                         d="m -0.0064,0.00761 -18.20829,21.69947 c -0.0035,0.0042 -0.0035,0.01103 0,0.01522 L -0.0064,43.42178 c 0.00353,0.0042 0.00927,0.0042 0.0128,0 L 18.21469,21.7223 c 0.0035,-0.0042 0.0035,-0.01103 0,-0.01522 L 0.0064,0.00761 c -0.00353,-0.00419 -0.00927,-0.00419 -0.0128,0 z"
                         style="fill:none;stroke:#1f1f1f;stroke-width:1.3468;stroke-linecap:butt;stroke-linejoin:round;stroke-miterlimit:10;stroke-dasharray:none;stroke-opacity:1"
                         id="path102" />
                      <path
                         d="m -0.0064,0.00761 -18.20829,21.69947 c -0.0035,0.0042 -0.0035,0.01103 0,0.01522 L -0.0064,43.42178 c 0.00353,0.0042 0.00927,0.0042 0.0128,0 L 18.21469,21.7223 c 0.0035,-0.0042 0.0035,-0.01103 0,-0.01522 L 0.0064,0.00761 c -0.00353,-0.00419 -0.00927,-0.00419 -0.0128,0 z"
                         style="fill:none;stroke:#212121;stroke-width:1.25993;stroke-linecap:butt;stroke-linejoin:round;stroke-miterlimit:10;stroke-dasharray:none;stroke-opacity:1"
                         id="path104" />
                      <path
                         d="m -0.0064,0.00761 -18.20829,21.69947 c -0.0035,0.0042 -0.0035,0.01103 0,0.01522 L -0.0064,43.42178 c 0.00353,0.0042 0.00927,0.0042 0.0128,0 L 18.21469,21.7223 c 0.0035,-0.0042 0.0035,-0.01103 0,-0.01522 L 0.0064,0.00761 c -0.00353,-0.00419 -0.00927,-0.00419 -0.0128,0 z"
                         style="fill:none;stroke:#222222;stroke-width:1.17307;stroke-linecap:butt;stroke-linejoin:round;stroke-miterlimit:10;stroke-dasharray:none;stroke-opacity:1"
                         id="path106" />
                      <path
                         d="m -0.0064,0.00761 -18.20829,21.69947 c -0.0035,0.0042 -0.0035,0.01103 0,0.01522 L -0.0064,43.42178 c 0.00353,0.0042 0.00927,0.0042 0.0128,0 L 18.21469,21.7223 c 0.0035,-0.0042 0.0035,-0.01103 0,-0.01522 L 0.0064,0.00761 c -0.00353,-0.00419 -0.00927,-0.00419 -0.0128,0 z"
                         style="fill:none;stroke:#232323;stroke-width:1.0862;stroke-linecap:butt;stroke-linejoin:round;stroke-miterlimit:10;stroke-dasharray:none;stroke-opacity:1"
                         id="path108" />
                      <path
                         d="m -0.0064,0.00761 -18.20829,21.69947 c -0.0035,0.0042 -0.0035,0.01103 0,0.01522 L -0.0064,43.42178 c 0.00353,0.0042 0.00927,0.0042 0.0128,0 L 18.21469,21.7223 c 0.0035,-0.0042 0.0035,-0.01103 0,-0.01522 L 0.0064,0.00761 c -0.00353,-0.00419 -0.00927,-0.00419 -0.0128,0 z"
                         style="fill:none;stroke:#242424;stroke-width:0.99934;stroke-linecap:butt;stroke-linejoin:round;stroke-miterlimit:10;stroke-dasharray:none;stroke-opacity:1"
                         id="path110" />
                      <path
                         d="m -0.0064,0.00761 -18.20829,21.69947 c -0.0035,0.0042 -0.0035,0.01103 0,0.01522 L -0.0064,43.42178 c 0.00353,0.0042 0.00927,0.0042 0.0128,0 L 18.21469,21.7223 c 0.0035,-0.0042 0.0035,-0.01103 0,-0.01522 L 0.0064,0.00761 c -0.00353,-0.00419 -0.00927,-0.00419 -0.0128,0 z"
                         style="fill:none;stroke:#262626;stroke-width:0.91248;stroke-linecap:butt;stroke-linejoin:round;stroke-miterlimit:10;stroke-dasharray:none;stroke-opacity:1"
                         id="path112" />
                      <path
                         d="m -0.0064,0.00761 -18.20829,21.69947 c -0.0035,0.0042 -0.0035,0.01103 0,0.01522 L -0.0064,43.42178 c 0.00353,0.0042 0.00927,0.0042 0.0128,0 L 18.21469,21.7223 c 0.0035,-0.0042 0.0035,-0.01103 0,-0.01522 L 0.0064,0.00761 c -0.00353,-0.00419 -0.00927,-0.00419 -0.0128,0 z"
                         style="fill:none;stroke:#272727;stroke-width:0.8256;stroke-linecap:butt;stroke-linejoin:round;stroke-miterlimit:10;stroke-dasharray:none;stroke-opacity:1"
                         id="path114" />
                      <path
                         d="m -0.0064,0.00761 -18.20829,21.69947 c -0.0035,0.0042 -0.0035,0.01103 0,0.01522 L -0.0064,43.42178 c 0.00353,0.0042 0.00927,0.0042 0.0128,0 L 18.21469,21.7223 c 0.0035,-0.0042 0.0035,-0.01103 0,-0.01522 L 0.0064,0.00761 c -0.00353,-0.00419 -0.00927,-0.00419 -0.0128,0 z"
                         style="fill:none;stroke:#282828;stroke-width:0.73875;stroke-linecap:butt;stroke-linejoin:round;stroke-miterlimit:10;stroke-dasharray:none;stroke-opacity:1"
                         id="path116" />
                      <path
                         d="m -0.0064,0.00761 -18.20829,21.69947 c -0.0035,0.0042 -0.0035,0.01103 0,0.01522 L -0.0064,43.42178 c 0.00353,0.0042 0.00927,0.0042 0.0128,0 L 18.21469,21.7223 c 0.0035,-0.0042 0.0035,-0.01103 0,-0.01522 L 0.0064,0.00761 c -0.00353,-0.00419 -0.00927,-0.00419 -0.0128,0 z"
                         style="fill:none;stroke:#292929;stroke-width:0.65189;stroke-linecap:butt;stroke-linejoin:round;stroke-miterlimit:10;stroke-dasharray:none;stroke-opacity:1"
                         id="path118" />
                      <path
                         d="m -0.0064,0.00761 -18.20829,21.69947 c -0.0035,0.0042 -0.0035,0.01103 0,0.01522 L -0.0064,43.42178 c 0.00353,0.0042 0.00927,0.0042 0.0128,0 L 18.21469,21.7223 c 0.0035,-0.0042 0.0035,-0.01103 0,-0.01522 L 0.0064,0.00761 c -0.00353,-0.00419 -0.00927,-0.00419 -0.0128,0 z"
                         style="fill:none;stroke:#2b2b2b;stroke-width:0.56502;stroke-linecap:butt;stroke-linejoin:round;stroke-miterlimit:10;stroke-dasharray:none;stroke-opacity:1"
                         id="path120" />
                      <path
                         d="m -0.0064,0.00761 -18.20829,21.69947 c -0.0035,0.0042 -0.0035,0.01103 0,0.01522 L -0.0064,43.42178 c 0.00353,0.0042 0.00927,0.0042 0.0128,0 L 18.21469,21.7223 c 0.0035,-0.0042 0.0035,-0.01103 0,-0.01522 L 0.0064,0.00761 c -0.00353,-0.00419 -0.00927,-0.00419 -0.0128,0 z"
                         style="fill:none;stroke:#2c2c2c;stroke-width:0.47815;stroke-linecap:butt;stroke-linejoin:round;stroke-miterlimit:10;stroke-dasharray:none;stroke-opacity:1"
                         id="path122" />
                      <path
                         d="m -0.0064,0.00761 -18.20829,21.69947 c -0.0035,0.0042 -0.0035,0.01103 0,0.01522 L -0.0064,43.42178 c 0.00353,0.0042 0.00927,0.0042 0.0128,0 L 18.21469,21.7223 c 0.0035,-0.0042 0.0035,-0.01103 0,-0.01522 L 0.0064,0.00761 c -0.00353,-0.00419 -0.00927,-0.00419 -0.0128,0 z"
                         style="fill:none;stroke:#2d2d2d;stroke-width:0.3913;stroke-linecap:butt;stroke-linejoin:round;stroke-miterlimit:10;stroke-dasharray:none;stroke-opacity:1"
                         id="path124" />
                      <path
                         d="m -0.0064,0.00761 -18.20829,21.69947 c -0.0035,0.0042 -0.0035,0.01103 0,0.01522 L -0.0064,43.42178 c 0.00353,0.0042 0.00927,0.0042 0.0128,0 L 18.21469,21.7223 c 0.0035,-0.0042 0.0035,-0.01103 0,-0.01522 L 0.0064,0.00761 c -0.00353,-0.00419 -0.00927,-0.00419 -0.0128,0 z"
                         style="fill:none;stroke:#2f2f2f;stroke-width:0.30443;stroke-linecap:butt;stroke-linejoin:round;stroke-miterlimit:10;stroke-dasharray:none;stroke-opacity:1"
                         id="path126" />
                      <path
                         d="m -0.0064,0.00761 -18.20829,21.69947 c -0.0035,0.0042 -0.0035,0.01103 0,0.01522 L -0.0064,43.42178 c 0.00353,0.0042 0.00927,0.0042 0.0128,0 L 18.21469,21.7223 c 0.0035,-0.0042 0.0035,-0.01103 0,-0.01522 L 0.0064,0.00761 c -0.00353,-0.00419 -0.00927,-0.00419 -0.0128,0 z"
                         style="fill:none;stroke:#303030;stroke-width:0.21756;stroke-linecap:butt;stroke-linejoin:round;stroke-miterlimit:10;stroke-dasharray:none;stroke-opacity:1"
                         id="path128" />
                      <path
                         d="m -0.0064,0.00761 -18.20829,21.69947 c -0.0035,0.0042 -0.0035,0.01103 0,0.01522 L -0.0064,43.42178 c 0.00353,0.0042 0.00927,0.0042 0.0128,0 L 18.21469,21.7223 c 0.0035,-0.0042 0.0035,-0.01103 0,-0.01522 L 0.0064,0.00761 c -0.00353,-0.00419 -0.00927,-0.00419 -0.0128,0 z"
                         style="fill:none;stroke:#313131;stroke-width:0.13069;stroke-linecap:butt;stroke-linejoin:round;stroke-miterlimit:10;stroke-dasharray:none;stroke-opacity:1"
                         id="path130" />
                      <g
                         id="g214">
                        <g
                           clip-path="url(#clipPath48)"
                           id="g212">
                          <path
                             d="M -21.65263,-3.43153 H 21.65264 V 46.86095 H -21.65263 Z"
                             style="fill:#666666;fill-opacity:1;fill-rule:nonzero;stroke:none"
                             id="path132" />
                          <path
                             d="m -0.0064,0.00761 -18.20829,21.69947 c -0.0035,0.0042 -0.0035,0.01103 0,0.01522 L -0.0064,43.42178 c 0.00353,0.0042 0.00927,0.0042 0.0128,0 L 18.21469,21.7223 c 0.0035,-0.0042 0.0035,-0.01103 0,-0.01522 L 0.0064,0.00761 c -0.00353,-0.00419 -0.00927,-0.00419 -0.0128,0 z"
                             style="fill:none;stroke:#656565;stroke-width:3.43153;stroke-linecap:butt;stroke-linejoin:round;stroke-miterlimit:10;stroke-dasharray:none;stroke-opacity:1"
                             id="path134" />
                          <path
                             d="m -0.0064,0.00761 -18.20829,21.69947 c -0.0035,0.0042 -0.0035,0.01103 0,0.01522 L -0.0064,43.42178 c 0.00353,0.0042 0.00927,0.0042 0.0128,0 L 18.21469,21.7223 c 0.0035,-0.0042 0.0035,-0.01103 0,-0.01522 L 0.0064,0.00761 c -0.00353,-0.00419 -0.00927,-0.00419 -0.0128,0 z"
                             style="fill:none;stroke:#646464;stroke-width:3.34467;stroke-linecap:butt;stroke-linejoin:round;stroke-miterlimit:10;stroke-dasharray:none;stroke-opacity:1"
                             id="path136" />
                          <path
                             d="m -0.0064,0.00761 -18.20829,21.69947 c -0.0035,0.0042 -0.0035,0.01103 0,0.01522 L -0.0064,43.42178 c 0.00353,0.0042 0.00927,0.0042 0.0128,0 L 18.21469,21.7223 c 0.0035,-0.0042 0.0035,-0.01103 0,-0.01522 L 0.0064,0.00761 c -0.00353,-0.00419 -0.00927,-0.00419 -0.0128,0 z"
                             style="fill:none;stroke:#636363;stroke-width:3.25781;stroke-linecap:butt;stroke-linejoin:round;stroke-miterlimit:10;stroke-dasharray:none;stroke-opacity:1"
                             id="path138" />
                          <path
                             d="m -0.0064,0.00761 -18.20829,21.69947 c -0.0035,0.0042 -0.0035,0.01103 0,0.01522 L -0.0064,43.42178 c 0.00353,0.0042 0.00927,0.0042 0.0128,0 L 18.21469,21.7223 c 0.0035,-0.0042 0.0035,-0.01103 0,-0.01522 L 0.0064,0.00761 c -0.00353,-0.00419 -0.00927,-0.00419 -0.0128,0 z"
                             style="fill:none;stroke:#626262;stroke-width:3.17094;stroke-linecap:butt;stroke-linejoin:round;stroke-miterlimit:10;stroke-dasharray:none;stroke-opacity:1"
                             id="path140" />
                          <path
                             d="m -0.0064,0.00761 -18.20829,21.69947 c -0.0035,0.0042 -0.0035,0.01103 0,0.01522 L -0.0064,43.42178 c 0.00353,0.0042 0.00927,0.0042 0.0128,0 L 18.21469,21.7223 c 0.0035,-0.0042 0.0035,-0.01103 0,-0.01522 L 0.0064,0.00761 c -0.00353,-0.00419 -0.00927,-0.00419 -0.0128,0 z"
                             style="fill:none;stroke:#606060;stroke-width:3.08408;stroke-linecap:butt;stroke-linejoin:round;stroke-miterlimit:10;stroke-dasharray:none;stroke-opacity:1"
                             id="path142" />
                          <path
                             d="m -0.0064,0.00761 -18.20829,21.69947 c -0.0035,0.0042 -0.0035,0.01103 0,0.01522 L -0.0064,43.42178 c 0.00353,0.0042 0.00927,0.0042 0.0128,0 L 18.21469,21.7223 c 0.0035,-0.0042 0.0035,-0.01103 0,-0.01522 L 0.0064,0.00761 c -0.00353,-0.00419 -0.00927,-0.00419 -0.0128,0 z"
                             style="fill:none;stroke:#5f5f5f;stroke-width:2.99721;stroke-linecap:butt;stroke-linejoin:round;stroke-miterlimit:10;stroke-dasharray:none;stroke-opacity:1"
                             id="path144" />
                          <path
                             d="m -0.0064,0.00761 -18.20829,21.69947 c -0.0035,0.0042 -0.0035,0.01103 0,0.01522 L -0.0064,43.42178 c 0.00353,0.0042 0.00927,0.0042 0.0128,0 L 18.21469,21.7223 c 0.0035,-0.0042 0.0035,-0.01103 0,-0.01522 L 0.0064,0.00761 c -0.00353,-0.00419 -0.00927,-0.00419 -0.0128,0 z"
                             style="fill:none;stroke:#5e5e5e;stroke-width:2.91035;stroke-linecap:butt;stroke-linejoin:round;stroke-miterlimit:10;stroke-dasharray:none;stroke-opacity:1"
                             id="path146" />
                          <path
                             d="m -0.0064,0.00761 -18.20829,21.69947 c -0.0035,0.0042 -0.0035,0.01103 0,0.01522 L -0.0064,43.42178 c 0.00353,0.0042 0.00927,0.0042 0.0128,0 L 18.21469,21.7223 c 0.0035,-0.0042 0.0035,-0.01103 0,-0.01522 L 0.0064,0.00761 c -0.00353,-0.00419 -0.00927,-0.00419 -0.0128,0 z"
                             style="fill:none;stroke:#5c5c5c;stroke-width:2.82349;stroke-linecap:butt;stroke-linejoin:round;stroke-miterlimit:10;stroke-dasharray:none;stroke-opacity:1"
                             id="path148" />
                          <path
                             d="m -0.0064,0.00761 -18.20829,21.69947 c -0.0035,0.0042 -0.0035,0.01103 0,0.01522 L -0.0064,43.42178 c 0.00353,0.0042 0.00927,0.0042 0.0128,0 L 18.21469,21.7223 c 0.0035,-0.0042 0.0035,-0.01103 0,-0.01522 L 0.0064,0.00761 c -0.00353,-0.00419 -0.00927,-0.00419 -0.0128,0 z"
                             style="fill:none;stroke:#5b5b5b;stroke-width:2.73662;stroke-linecap:butt;stroke-linejoin:round;stroke-miterlimit:10;stroke-dasharray:none;stroke-opacity:1"
                             id="path150" />
                          <path
                             d="m -0.0064,0.00761 -18.20829,21.69947 c -0.0035,0.0042 -0.0035,0.01103 0,0.01522 L -0.0064,43.42178 c 0.00353,0.0042 0.00927,0.0042 0.0128,0 L 18.21469,21.7223 c 0.0035,-0.0042 0.0035,-0.01103 0,-0.01522 L 0.0064,0.00761 c -0.00353,-0.00419 -0.00927,-0.00419 -0.0128,0 z"
                             style="fill:none;stroke:#5a5a5a;stroke-width:2.64977;stroke-linecap:butt;stroke-linejoin:round;stroke-miterlimit:10;stroke-dasharray:none;stroke-opacity:1"
                             id="path152" />
                          <path
                             d="m -0.0064,0.00761 -18.20829,21.69947 c -0.0035,0.0042 -0.0035,0.01103 0,0.01522 L -0.0064,43.42178 c 0.00353,0.0042 0.00927,0.0042 0.0128,0 L 18.21469,21.7223 c 0.0035,-0.0042 0.0035,-0.01103 0,-0.01522 L 0.0064,0.00761 c -0.00353,-0.00419 -0.00927,-0.00419 -0.0128,0 z"
                             style="fill:none;stroke:#595959;stroke-width:2.5629;stroke-linecap:butt;stroke-linejoin:round;stroke-miterlimit:10;stroke-dasharray:none;stroke-opacity:1"
                             id="path154" />
                          <path
                             d="m -0.0064,0.00761 -18.20829,21.69947 c -0.0035,0.0042 -0.0035,0.01103 0,0.01522 L -0.0064,43.42178 c 0.00353,0.0042 0.00927,0.0042 0.0128,0 L 18.21469,21.7223 c 0.0035,-0.0042 0.0035,-0.01103 0,-0.01522 L 0.0064,0.00761 c -0.00353,-0.00419 -0.00927,-0.00419 -0.0128,0 z"
                             style="fill:none;stroke:#575757;stroke-width:2.47603;stroke-linecap:butt;stroke-linejoin:round;stroke-miterlimit:10;stroke-dasharray:none;stroke-opacity:1"
                             id="path156" />
                          <path
                             d="m -0.0064,0.00761 -18.20829,21.69947 c -0.0035,0.0042 -0.0035,0.01103 0,0.01522 L -0.0064,43.42178 c 0.00353,0.0042 0.00927,0.0042 0.0128,0 L 18.21469,21.7223 c 0.0035,-0.0042 0.0035,-0.01103 0,-0.01522 L 0.0064,0.00761 c -0.00353,-0.00419 -0.00927,-0.00419 -0.0128,0 z"
                             style="fill:none;stroke:#565656;stroke-width:2.38916;stroke-linecap:butt;stroke-linejoin:round;stroke-miterlimit:10;stroke-dasharray:none;stroke-opacity:1"
                             id="path158" />
                          <path
                             d="m -0.0064,0.00761 -18.20829,21.69947 c -0.0035,0.0042 -0.0035,0.01103 0,0.01522 L -0.0064,43.42178 c 0.00353,0.0042 0.00927,0.0042 0.0128,0 L 18.21469,21.7223 c 0.0035,-0.0042 0.0035,-0.01103 0,-0.01522 L 0.0064,0.00761 c -0.00353,-0.00419 -0.00927,-0.00419 -0.0128,0 z"
                             style="fill:none;stroke:#555555;stroke-width:2.3023;stroke-linecap:butt;stroke-linejoin:round;stroke-miterlimit:10;stroke-dasharray:none;stroke-opacity:1"
                             id="path160" />
                          <path
                             d="m -0.0064,0.00761 -18.20829,21.69947 c -0.0035,0.0042 -0.0035,0.01103 0,0.01522 L -0.0064,43.42178 c 0.00353,0.0042 0.00927,0.0042 0.0128,0 L 18.21469,21.7223 c 0.0035,-0.0042 0.0035,-0.01103 0,-0.01522 L 0.0064,0.00761 c -0.00353,-0.00419 -0.00927,-0.00419 -0.0128,0 z"
                             style="fill:none;stroke:#545454;stroke-width:2.21544;stroke-linecap:butt;stroke-linejoin:round;stroke-miterlimit:10;stroke-dasharray:none;stroke-opacity:1"
                             id="path162" />
                          <path
                             d="m -0.0064,0.00761 -18.20829,21.69947 c -0.0035,0.0042 -0.0035,0.01103 0,0.01522 L -0.0064,43.42178 c 0.00353,0.0042 0.00927,0.0042 0.0128,0 L 18.21469,21.7223 c 0.0035,-0.0042 0.0035,-0.01103 0,-0.01522 L 0.0064,0.00761 c -0.00353,-0.00419 -0.00927,-0.00419 -0.0128,0 z"
                             style="fill:none;stroke:#525252;stroke-width:2.12857;stroke-linecap:butt;stroke-linejoin:round;stroke-miterlimit:10;stroke-dasharray:none;stroke-opacity:1"
                             id="path164" />
                          <path
                             d="m -0.0064,0.00761 -18.20829,21.69947 c -0.0035,0.0042 -0.0035,0.01103 0,0.01522 L -0.0064,43.42178 c 0.00353,0.0042 0.00927,0.0042 0.0128,0 L 18.21469,21.7223 c 0.0035,-0.0042 0.0035,-0.01103 0,-0.01522 L 0.0064,0.00761 c -0.00353,-0.00419 -0.00927,-0.00419 -0.0128,0 z"
                             style="fill:none;stroke:#515151;stroke-width:2.0417;stroke-linecap:butt;stroke-linejoin:round;stroke-miterlimit:10;stroke-dasharray:none;stroke-opacity:1"
                             id="path166" />
                          <path
                             d="m -0.0064,0.00761 -18.20829,21.69947 c -0.0035,0.0042 -0.0035,0.01103 0,0.01522 L -0.0064,43.42178 c 0.00353,0.0042 0.00927,0.0042 0.0128,0 L 18.21469,21.7223 c 0.0035,-0.0042 0.0035,-0.01103 0,-0.01522 L 0.0064,0.00761 c -0.00353,-0.00419 -0.00927,-0.00419 -0.0128,0 z"
                             style="fill:none;stroke:#505050;stroke-width:1.95485;stroke-linecap:butt;stroke-linejoin:round;stroke-miterlimit:10;stroke-dasharray:none;stroke-opacity:1"
                             id="path168" />
                          <path
                             d="m -0.0064,0.00761 -18.20829,21.69947 c -0.0035,0.0042 -0.0035,0.01103 0,0.01522 L -0.0064,43.42178 c 0.00353,0.0042 0.00927,0.0042 0.0128,0 L 18.21469,21.7223 c 0.0035,-0.0042 0.0035,-0.01103 0,-0.01522 L 0.0064,0.00761 c -0.00353,-0.00419 -0.00927,-0.00419 -0.0128,0 z"
                             style="fill:none;stroke:#4e4e4e;stroke-width:1.86798;stroke-linecap:butt;stroke-linejoin:round;stroke-miterlimit:10;stroke-dasharray:none;stroke-opacity:1"
                             id="path170" />
                          <path
                             d="m -0.0064,0.00761 -18.20829,21.69947 c -0.0035,0.0042 -0.0035,0.01103 0,0.01522 L -0.0064,43.42178 c 0.00353,0.0042 0.00927,0.0042 0.0128,0 L 18.21469,21.7223 c 0.0035,-0.0042 0.0035,-0.01103 0,-0.01522 L 0.0064,0.00761 c -0.00353,-0.00419 -0.00927,-0.00419 -0.0128,0 z"
                             style="fill:none;stroke:#4d4d4d;stroke-width:1.78111;stroke-linecap:butt;stroke-linejoin:round;stroke-miterlimit:10;stroke-dasharray:none;stroke-opacity:1"
                             id="path172" />
                          <path
                             d="m -0.0064,0.00761 -18.20829,21.69947 c -0.0035,0.0042 -0.0035,0.01103 0,0.01522 L -0.0064,43.42178 c 0.00353,0.0042 0.00927,0.0042 0.0128,0 L 18.21469,21.7223 c 0.0035,-0.0042 0.0035,-0.01103 0,-0.01522 L 0.0064,0.00761 c -0.00353,-0.00419 -0.00927,-0.00419 -0.0128,0 z"
                             style="fill:none;stroke:#4c4c4c;stroke-width:1.69426;stroke-linecap:butt;stroke-linejoin:round;stroke-miterlimit:10;stroke-dasharray:none;stroke-opacity:1"
                             id="path174" />
                          <path
                             d="m -0.0064,0.00761 -18.20829,21.69947 c -0.0035,0.0042 -0.0035,0.01103 0,0.01522 L -0.0064,43.42178 c 0.00353,0.0042 0.00927,0.0042 0.0128,0 L 18.21469,21.7223 c 0.0035,-0.0042 0.0035,-0.01103 0,-0.01522 L 0.0064,0.00761 c -0.00353,-0.00419 -0.00927,-0.00419 -0.0128,0 z"
                             style="fill:none;stroke:#4b4b4b;stroke-width:1.60739;stroke-linecap:butt;stroke-linejoin:round;stroke-miterlimit:10;stroke-dasharray:none;stroke-opacity:1"
                             id="path176" />
                          <path
                             d="m -0.0064,0.00761 -18.20829,21.69947 c -0.0035,0.0042 -0.0035,0.01103 0,0.01522 L -0.0064,43.42178 c 0.00353,0.0042 0.00927,0.0042 0.0128,0 L 18.21469,21.7223 c 0.0035,-0.0042 0.0035,-0.01103 0,-0.01522 L 0.0064,0.00761 c -0.00353,-0.00419 -0.00927,-0.00419 -0.0128,0 z"
                             style="fill:none;stroke:#494949;stroke-width:1.52052;stroke-linecap:butt;stroke-linejoin:round;stroke-miterlimit:10;stroke-dasharray:none;stroke-opacity:1"
                             id="path178" />
                          <path
                             d="m -0.0064,0.00761 -18.20829,21.69947 c -0.0035,0.0042 -0.0035,0.01103 0,0.01522 L -0.0064,43.42178 c 0.00353,0.0042 0.00927,0.0042 0.0128,0 L 18.21469,21.7223 c 0.0035,-0.0042 0.0035,-0.01103 0,-0.01522 L 0.0064,0.00761 c -0.00353,-0.00419 -0.00927,-0.00419 -0.0128,0 z"
                             style="fill:none;stroke:#484848;stroke-width:1.43365;stroke-linecap:butt;stroke-linejoin:round;stroke-miterlimit:10;stroke-dasharray:none;stroke-opacity:1"
                             id="path180" />
                          <path
                             d="m -0.0064,0.00761 -18.20829,21.69947 c -0.0035,0.0042 -0.0035,0.01103 0,0.01522 L -0.0064,43.42178 c 0.00353,0.0042 0.00927,0.0042 0.0128,0 L 18.21469,21.7223 c 0.0035,-0.0042 0.0035,-0.01103 0,-0.01522 L 0.0064,0.00761 c -0.00353,-0.00419 -0.00927,-0.00419 -0.0128,0 z"
                             style="fill:none;stroke:#474747;stroke-width:1.3468;stroke-linecap:butt;stroke-linejoin:round;stroke-miterlimit:10;stroke-dasharray:none;stroke-opacity:1"
                             id="path182" />
                          <path
                             d="m -0.0064,0.00761 -18.20829,21.69947 c -0.0035,0.0042 -0.0035,0.01103 0,0.01522 L -0.0064,43.42178 c 0.00353,0.0042 0.00927,0.0042 0.0128,0 L 18.21469,21.7223 c 0.0035,-0.0042 0.0035,-0.01103 0,-0.01522 L 0.0064,0.00761 c -0.00353,-0.00419 -0.00927,-0.00419 -0.0128,0 z"
                             style="fill:none;stroke:#454545;stroke-width:1.25993;stroke-linecap:butt;stroke-linejoin:round;stroke-miterlimit:10;stroke-dasharray:none;stroke-opacity:1"
                             id="path184" />
                          <path
                             d="m -0.0064,0.00761 -18.20829,21.69947 c -0.0035,0.0042 -0.0035,0.01103 0,0.01522 L -0.0064,43.42178 c 0.00353,0.0042 0.00927,0.0042 0.0128,0 L 18.21469,21.7223 c 0.0035,-0.0042 0.0035,-0.01103 0,-0.01522 L 0.0064,0.00761 c -0.00353,-0.00419 -0.00927,-0.00419 -0.0128,0 z"
                             style="fill:none;stroke:#444444;stroke-width:1.17307;stroke-linecap:butt;stroke-linejoin:round;stroke-miterlimit:10;stroke-dasharray:none;stroke-opacity:1"
                             id="path186" />
                          <path
                             d="m -0.0064,0.00761 -18.20829,21.69947 c -0.0035,0.0042 -0.0035,0.01103 0,0.01522 L -0.0064,43.42178 c 0.00353,0.0042 0.00927,0.0042 0.0128,0 L 18.21469,21.7223 c 0.0035,-0.0042 0.0035,-0.01103 0,-0.01522 L 0.0064,0.00761 c -0.00353,-0.00419 -0.00927,-0.00419 -0.0128,0 z"
                             style="fill:none;stroke:#434343;stroke-width:1.0862;stroke-linecap:butt;stroke-linejoin:round;stroke-miterlimit:10;stroke-dasharray:none;stroke-opacity:1"
                             id="path188" />
                          <path
                             d="m -0.0064,0.00761 -18.20829,21.69947 c -0.0035,0.0042 -0.0035,0.01103 0,0.01522 L -0.0064,43.42178 c 0.00353,0.0042 0.00927,0.0042 0.0128,0 L 18.21469,21.7223 c 0.0035,-0.0042 0.0035,-0.01103 0,-0.01522 L 0.0064,0.00761 c -0.00353,-0.00419 -0.00927,-0.00419 -0.0128,0 z"
                             style="fill:none;stroke:#424242;stroke-width:0.99934;stroke-linecap:butt;stroke-linejoin:round;stroke-miterlimit:10;stroke-dasharray:none;stroke-opacity:1"
                             id="path190" />
                          <path
                             d="m -0.0064,0.00761 -18.20829,21.69947 c -0.0035,0.0042 -0.0035,0.01103 0,0.01522 L -0.0064,43.42178 c 0.00353,0.0042 0.00927,0.0042 0.0128,0 L 18.21469,21.7223 c 0.0035,-0.0042 0.0035,-0.01103 0,-0.01522 L 0.0064,0.00761 c -0.00353,-0.00419 -0.00927,-0.00419 -0.0128,0 z"
                             style="fill:none;stroke:#404040;stroke-width:0.91248;stroke-linecap:butt;stroke-linejoin:round;stroke-miterlimit:10;stroke-dasharray:none;stroke-opacity:1"
                             id="path192" />
                          <path
                             d="m -0.0064,0.00761 -18.20829,21.69947 c -0.0035,0.0042 -0.0035,0.01103 0,0.01522 L -0.0064,43.42178 c 0.00353,0.0042 0.00927,0.0042 0.0128,0 L 18.21469,21.7223 c 0.0035,-0.0042 0.0035,-0.01103 0,-0.01522 L 0.0064,0.00761 c -0.00353,-0.00419 -0.00927,-0.00419 -0.0128,0 z"
                             style="fill:none;stroke:#3f3f3f;stroke-width:0.8256;stroke-linecap:butt;stroke-linejoin:round;stroke-miterlimit:10;stroke-dasharray:none;stroke-opacity:1"
                             id="path194" />
                          <path
                             d="m -0.0064,0.00761 -18.20829,21.69947 c -0.0035,0.0042 -0.0035,0.01103 0,0.01522 L -0.0064,43.42178 c 0.00353,0.0042 0.00927,0.0042 0.0128,0 L 18.21469,21.7223 c 0.0035,-0.0042 0.0035,-0.01103 0,-0.01522 L 0.0064,0.00761 c -0.00353,-0.00419 -0.00927,-0.00419 -0.0128,0 z"
                             style="fill:none;stroke:#3e3e3e;stroke-width:0.73875;stroke-linecap:butt;stroke-linejoin:round;stroke-miterlimit:10;stroke-dasharray:none;stroke-opacity:1"
                             id="path196" />
                          <path
                             d="m -0.0064,0.00761 -18.20829,21.69947 c -0.0035,0.0042 -0.0035,0.01103 0,0.01522 L -0.0064,43.42178 c 0.00353,0.0042 0.00927,0.0042 0.0128,0 L 18.21469,21.7223 c 0.0035,-0.0042 0.0035,-0.01103 0,-0.01522 L 0.0064,0.00761 c -0.00353,-0.00419 -0.00927,-0.00419 -0.0128,0 z"
                             style="fill:none;stroke:#3d3d3d;stroke-width:0.65189;stroke-linecap:butt;stroke-linejoin:round;stroke-miterlimit:10;stroke-dasharray:none;stroke-opacity:1"
                             id="path198" />
                          <path
                             d="m -0.0064,0.00761 -18.20829,21.69947 c -0.0035,0.0042 -0.0035,0.01103 0,0.01522 L -0.0064,43.42178 c 0.00353,0.0042 0.00927,0.0042 0.0128,0 L 18.21469,21.7223 c 0.0035,-0.0042 0.0035,-0.01103 0,-0.01522 L 0.0064,0.00761 c -0.00353,-0.00419 -0.00927,-0.00419 -0.0128,0 z"
                             style="fill:none;stroke:#3b3b3b;stroke-width:0.56502;stroke-linecap:butt;stroke-linejoin:round;stroke-miterlimit:10;stroke-dasharray:none;stroke-opacity:1"
                             id="path200" />
                          <path
                             d="m -0.0064,0.00761 -18.20829,21.69947 c -0.0035,0.0042 -0.0035,0.01103 0,0.01522 L -0.0064,43.42178 c 0.00353,0.0042 0.00927,0.0042 0.0128,0 L 18.21469,21.7223 c 0.0035,-0.0042 0.0035,-0.01103 0,-0.01522 L 0.0064,0.00761 c -0.00353,-0.00419 -0.00927,-0.00419 -0.0128,0 z"
                             style="fill:none;stroke:#3a3a3a;stroke-width:0.47815;stroke-linecap:butt;stroke-linejoin:round;stroke-miterlimit:10;stroke-dasharray:none;stroke-opacity:1"
                             id="path202" />
                          <path
                             d="m -0.0064,0.00761 -18.20829,21.69947 c -0.0035,0.0042 -0.0035,0.01103 0,0.01522 L -0.0064,43.42178 c 0.00353,0.0042 0.00927,0.0042 0.0128,0 L 18.21469,21.7223 c 0.0035,-0.0042 0.0035,-0.01103 0,-0.01522 L 0.0064,0.00761 c -0.00353,-0.00419 -0.00927,-0.00419 -0.0128,0 z"
                             style="fill:none;stroke:#393939;stroke-width:0.3913;stroke-linecap:butt;stroke-linejoin:round;stroke-miterlimit:10;stroke-dasharray:none;stroke-opacity:1"
                             id="path204" />
                          <path
                             d="m -0.0064,0.00761 -18.20829,21.69947 c -0.0035,0.0042 -0.0035,0.01103 0,0.01522 L -0.0064,43.42178 c 0.00353,0.0042 0.00927,0.0042 0.0128,0 L 18.21469,21.7223 c 0.0035,-0.0042 0.0035,-0.01103 0,-0.01522 L 0.0064,0.00761 c -0.00353,-0.00419 -0.00927,-0.00419 -0.0128,0 z"
                             style="fill:none;stroke:#373737;stroke-width:0.30443;stroke-linecap:butt;stroke-linejoin:round;stroke-miterlimit:10;stroke-dasharray:none;stroke-opacity:1"
                             id="path206" />
                          <path
                             d="m -0.0064,0.00761 -18.20829,21.69947 c -0.0035,0.0042 -0.0035,0.01103 0,0.01522 L -0.0064,43.42178 c 0.00353,0.0042 0.00927,0.0042 0.0128,0 L 18.21469,21.7223 c 0.0035,-0.0042 0.0035,-0.01103 0,-0.01522 L 0.0064,0.00761 c -0.00353,-0.00419 -0.00927,-0.00419 -0.0128,0 z"
                             style="fill:none;stroke:#363636;stroke-width:0.21756;stroke-linecap:butt;stroke-linejoin:round;stroke-miterlimit:10;stroke-dasharray:none;stroke-opacity:1"
                             id="path208" />
                          <path
                             d="m -0.0064,0.00761 -18.20829,21.69947 c -0.0035,0.0042 -0.0035,0.01103 0,0.01522 L -0.0064,43.42178 c 0.00353,0.0042 0.00927,0.0042 0.0128,0 L 18.21469,21.7223 c 0.0035,-0.0042 0.0035,-0.01103 0,-0.01522 L 0.0064,0.00761 c -0.00353,-0.00419 -0.00927,-0.00419 -0.0128,0 z"
                             style="fill:none;stroke:#353535;stroke-width:0.13069;stroke-linecap:butt;stroke-linejoin:round;stroke-miterlimit:10;stroke-dasharray:none;stroke-opacity:1"
                             id="path210" />
                        </g>
                      </g>
                      <path
                         d="m -0.0064,0.00761 -18.20829,21.69947 c -0.0035,0.0042 -0.0035,0.01103 0,0.01522 L -0.0064,43.42178 c 0.00353,0.0042 0.00927,0.0042 0.0128,0 L 18.21469,21.7223 c 0.0035,-0.0042 0.0035,-0.01103 0,-0.01522 L 0.0064,0.00761 c -0.00353,-0.00419 -0.00927,-0.00419 -0.0128,0 z"
                         style="fill:none;stroke:#333333;stroke-width:0.04343;stroke-linecap:butt;stroke-linejoin:round;stroke-miterlimit:10;stroke-dasharray:none;stroke-opacity:1"
                         id="path216" />
                    </g>
                    <g
                       transform="translate(21.653,-3.431)"
                       id="g220" />
                  </g>
                </g>
              </g>
            </g>
          </g>
        </g>
      </g>
    </mask>
  </defs>
  <sodipodi:namedview
     id="namedview4"
     pagecolor="#ffffff"
     bordercolor="#000000"
     borderopacity="0.25"
     inkscape:showpageshadow="2"
     inkscape:pageopacity="0.0"
     inkscape:pagecheckerboard="0"
     inkscape:deskcolor="#d1d1d1"
     showgrid="false"
     inkscape:zoom="16"
     inkscape:cx="29.15625"
     inkscape:cy="29.34375"
     inkscape:window-width="2560"
     inkscape:window-height="1403"
     inkscape:window-x="0"
     inkscape:window-y="0"
     inkscape:window-maximized="1"
     inkscape:current-layer="g10">
    <inkscape:page
       x="0"
       y="0"
       id="page8"
       width="49.635155"
       height="58.948181"
       margin="0"
       bleed="0" />
  </sodipodi:namedview>
  <g
     id="g10"
     inkscape:groupmode="layer"
     inkscape:label="Page 1"
     transform="matrix(1.3333333,0,0,-1.3333333,-3.9930894,62.943016)">
    <g
       id="g16"
       transform="translate(21.608,3.387)" />
    <g
       id="g22"
       transform="translate(21.608,3.387)" />
    <g
       id="g24"
       transform="translate(21.608,3.387)" />
    <g
       id="g26"
       transform="translate(21.608,3.387)" />
    <g
       id="g28"
       transform="translate(21.608,3.387)" />
    <g
       id="g30"
       transform="translate(21.608,3.387)" />
    <g
       id="g242"
       style="stroke:none"
       transform="translate(21.608,3.387)" />
    <path
       d="M 21.601601,3.3946094 3.3933105,25.09408 C 9.4425255,32.333511 15.53125,39.574522 21.601601,46.80878 27.677355,39.598492 33.753606,32.342049 39.822691,25.1093 33.492667,17.532117 27.037626,9.8551358 21.601601,3.3946094 Z"
       style="fill:#ebebf5;fill-opacity:1;fill-rule:nonzero;stroke:none;stroke-width:0.79701;stroke-linecap:butt;stroke-linejoin:round;stroke-miterlimit:10;stroke-dasharray:none;stroke-opacity:1"
       id="background"
       sodipodi:nodetypes="ccccc" />
    <g
       id="g248"
       transform="translate(21.608,3.387)">
      <g
         id="g250" />
      <g
         id="g252" />
      <g
         id="g254" />
      <path
         d="m -3.64368,38.64598 c 2.10712,-1.7681 5.181,-1.7681 7.28812,0"
         style="fill:none;stroke:#000000;stroke-width:0.3985;stroke-linecap:butt;stroke-linejoin:miter;stroke-miterlimit:10;stroke-dasharray:none;stroke-opacity:1"
         id="path258" />
      <path
         d="M -0.47015,39.41676 -0.65009,35.2882"
         style="fill:none;stroke:#000000;stroke-width:0.3985;stroke-linecap:butt;stroke-linejoin:miter;stroke-miterlimit:10;stroke-dasharray:none;stroke-opacity:1"
         id="path262" />
      <path
         d="M 0.47015,39.41676 0.65009,35.2882"
         style="fill:none;stroke:#000000;stroke-width:0.3985;stroke-linecap:butt;stroke-linejoin:miter;stroke-miterlimit:10;stroke-dasharray:none;stroke-opacity:1"
         id="path264" />
    </g>
    <g
       id="g268"
       transform="translate(21.608,3.387)">
      <g
         id="g270" />
      <g
         id="g272" />
      <g
         id="g274" />
      <path
         d="m 3.64368,4.78342 c -2.10712,1.76809 -5.181,1.76809 -7.28812,0"
         style="fill:none;stroke:#000000;stroke-width:0.3985;stroke-linecap:butt;stroke-linejoin:miter;stroke-miterlimit:10;stroke-dasharray:none;stroke-opacity:1"
         id="path278" />
      <path
         d="M 0.47015,4.01263 0.65009,8.1412"
         style="fill:none;stroke:#000000;stroke-width:0.3985;stroke-linecap:butt;stroke-linejoin:miter;stroke-miterlimit:10;stroke-dasharray:none;stroke-opacity:1"
         id="path282" />
      <path
         d="M -0.47015,4.01263 -0.65009,8.1412"
         style="fill:none;stroke:#000000;stroke-width:0.3985;stroke-linecap:butt;stroke-linejoin:miter;stroke-miterlimit:10;stroke-dasharray:none;stroke-opacity:1"
         id="path284" />
    </g>
    <g
       id="g288"
       transform="translate(21.608,3.387)">
      <g
         id="g290" />
      <g
         id="g292" />
      <g
         id="g294" />
      <path
         d="m 14.20758,26.05737 c -1.55131,-1.30174 -2.29068,-3.33282 -1.93904,-5.32722 0.23138,-1.31229 0.91827,-2.50185 1.93904,-3.35834"
         style="fill:none;stroke:#000000;stroke-width:0.3985;stroke-linecap:butt;stroke-linejoin:miter;stroke-miterlimit:10;stroke-dasharray:none;stroke-opacity:1"
         id="path298" />
      <path
         d="M 14.24823,21.71469 H 10.11534"
         style="fill:none;stroke:#000000;stroke-width:0.3985;stroke-linecap:butt;stroke-linejoin:miter;stroke-miterlimit:10;stroke-dasharray:none;stroke-opacity:1"
         id="path302" />
    </g>
    <g
       id="g306"
       transform="translate(21.608,3.387)">
      <g
         id="g308" />
      <g
         id="g310" />
      <g
         id="g312" />
      <path
         d="m -14.20758,17.37202 c 1.55131,1.30175 2.29068,3.33283 1.93904,5.32721 -0.23138,1.31231 -0.91827,2.50185 -1.93904,3.35836"
         style="fill:none;stroke:#000000;stroke-width:0.3985;stroke-linecap:butt;stroke-linejoin:miter;stroke-miterlimit:10;stroke-dasharray:none;stroke-opacity:1"
         id="path316" />
      <path
         d="m -14.24823,21.71469 h 4.13289"
         style="fill:none;stroke:#000000;stroke-width:0.3985;stroke-linecap:butt;stroke-linejoin:miter;stroke-miterlimit:10;stroke-dasharray:none;stroke-opacity:1"
         id="path320" />
    </g>
    <path
       d="M 21.6016,3.39461 3.39331,25.09408 C 9.442524,32.333511 15.531249,39.574522 21.6016,46.80878 27.677354,39.598492 33.753605,32.342049 39.82269,25.1093 33.492666,17.532117 27.037625,9.8551364 21.6016,3.39461 Z"
       style="fill:none;fill-opacity:1;fill-rule:nonzero;stroke:#000000;stroke-width:0.79701;stroke-linecap:butt;stroke-linejoin:round;stroke-miterlimit:10;stroke-dasharray:none;stroke-opacity:1"
       id="path1798"
       sodipodi:nodetypes="ccccc" />
    <g
       id="g346"
       transform="translate(21.608,3.387)">
      <g
         id="g348">
        <g
           id="g350" />
      </g>
    </g>
  </g>
</svg>
